<svg width="531" height="53" viewBox="0 0 531 53" fill="none" xmlns="http://www.w3.org/2000/svg">
<path d="M77.3513 19.1444V19.1531L77.0713 20.8594C73.758 20.9002 71.9409 20.9206 71.6201 20.9206C71.5734 20.9206 71.5501 20.9323 71.5501 20.9556C71.5442 21.014 71.5151 21.1919 71.4626 21.4894H77.4913L77.2113 23.2044H71.1913L71.1038 23.7119H76.5901V23.7206C76.5142 24.2165 76.2896 25.634 75.9163 27.9731C75.7996 28.0606 75.3855 28.4165 74.6738 29.0406C74.6621 29.0465 74.6505 29.0494 74.6388 29.0494H70.2726C70.2609 29.0494 70.2405 29.1806 70.2113 29.4431C70.2055 29.4431 70.1967 29.4811 70.1851 29.5569H75.7938L75.5488 31.0794L75.5401 31.0881H69.9488C69.9371 31.0881 69.9138 31.234 69.8788 31.5256H75.8901C75.7617 32.3773 75.6859 32.8702 75.6626 33.0044H60.9976L61.2338 31.5256H67.2538C67.2596 31.4381 67.283 31.2923 67.3238 31.0881H61.6276L61.6188 31.0794C61.7763 30.0877 61.8551 29.5802 61.8551 29.5569H67.5513C67.563 29.5569 67.5863 29.4256 67.6213 29.1631C67.6271 29.1631 67.633 29.1252 67.6388 29.0494H63.1501L62.2401 27.9644C62.6892 25.1469 62.9138 23.7294 62.9138 23.7119H68.4788C68.4905 23.7119 68.5138 23.5806 68.5488 23.3181C68.5546 23.3181 68.5605 23.2802 68.5663 23.2044H62.5551L62.8176 21.4894H68.8288C68.8463 21.4894 68.8667 21.3931 68.8901 21.2006C68.8901 21.2006 68.9017 21.1102 68.9251 20.9294C68.5284 20.9294 66.6676 20.9498 63.3426 20.9906V20.9819C63.3426 20.9644 63.4301 20.4161 63.6051 19.3369C63.6226 19.3369 63.6663 19.334 63.7363 19.3281C63.9521 19.3281 66.7813 19.2902 72.2238 19.2144C75.3271 19.1677 77.0363 19.1444 77.3513 19.1444ZM65.1626 25.1819C65.1217 25.4327 65.0955 25.599 65.0838 25.6806H68.1813C68.1813 25.6631 68.2046 25.4969 68.2513 25.1819H65.1626ZM70.8851 25.1819C70.8267 25.4852 70.7976 25.6515 70.7976 25.6806H73.7901C73.8367 25.4123 73.863 25.2461 73.8688 25.1819H70.8851ZM64.7776 27.5969H67.8751C67.9217 27.2877 67.9451 27.1156 67.9451 27.0806H64.8738C64.8621 27.0806 64.8388 27.2119 64.8038 27.4744C64.798 27.4744 64.7892 27.5152 64.7776 27.5969ZM70.5001 27.5969H73.4926V27.5881L73.5626 27.0806H70.5876C70.5701 27.0806 70.5467 27.209 70.5176 27.4656C70.5117 27.4656 70.5059 27.5094 70.5001 27.5969Z" fill="white"/>
<path d="M86.2102 19.1444H90.3489C90.3489 19.1502 90.4481 19.4477 90.6464 20.0369H95.8877C95.8877 20.0544 95.7914 20.6844 95.5989 21.9269H84.2414C82.8239 27.4511 82.0918 30.3036 82.0452 30.4844L81.3977 33.0044H78.9127C80.1668 27.8594 80.8202 25.1761 80.8727 24.9544C81.5027 22.3994 81.8614 20.9236 81.9489 20.5269C81.5347 20.3052 81.0331 20.1448 80.4439 20.0456V20.0369H88.0477C87.9952 19.8386 87.9631 19.719 87.9514 19.6781C87.7881 19.5965 87.5256 19.4944 87.1639 19.3719C86.6622 19.2261 86.3443 19.1531 86.2102 19.1531V19.1444ZM88.1439 22.8544H90.7514V22.8631L90.4102 24.7881H94.8814C94.7122 25.8381 94.6131 26.4681 94.5839 26.6781H90.1652C92.4518 30.569 93.6447 32.6048 93.7439 32.7856H90.7689C90.7514 32.7681 90.3752 32.1381 89.6402 30.8956C88.8643 29.5773 88.4531 28.8802 88.4064 28.8044C86.3589 31.3536 85.2856 32.6806 85.1864 32.7856H82.1152V32.7769C85.3818 28.9619 87.0181 27.0544 87.0239 27.0544L87.3389 26.6781H83.6552C83.7718 25.9898 83.8739 25.3598 83.9614 24.7881H87.7852L88.1439 22.8544Z" fill="white"/>
<path d="M102.515 19.5294H106.733V19.5381C106.721 19.6198 106.663 19.9902 106.558 20.6494H112.027L112.044 20.6581C111.811 22.0756 111.405 24.6365 110.828 28.3406C110.804 28.3756 110.592 28.5652 110.189 28.9094L109.559 29.4431H105.175C104.989 30.5806 104.892 31.1756 104.887 31.2281H108.632C108.632 31.164 108.684 30.8169 108.789 30.1869H111.134C110.977 31.2077 110.883 31.7852 110.854 31.9194C110.825 31.9486 110.411 32.3073 109.612 32.9956C109.606 33.0015 109.597 33.0044 109.585 33.0044H103.067C103.061 32.9869 102.757 32.6252 102.157 31.9194C102.326 30.8694 102.454 30.044 102.542 29.4431H98.219C98.219 29.4431 97.9128 29.0844 97.3003 28.3669L98.5253 20.6494H103.933C103.944 20.6494 103.971 20.4919 104.012 20.1769C104.023 20.1769 104.029 20.1302 104.029 20.0369C103.527 19.7861 103.023 19.6198 102.515 19.5381V19.5294ZM100.862 22.4781L100.599 24.1056H103.39C103.565 23.0498 103.653 22.5073 103.653 22.4781H100.862ZM106.269 22.4781L106.024 24.1056H108.877V24.0969L109.13 22.4781H106.269ZM100.048 27.6144H102.839L103.102 25.9344H100.319C100.307 25.9344 100.278 26.0948 100.232 26.4156C100.109 27.1798 100.048 27.5794 100.048 27.6144ZM105.727 25.9344L105.464 27.6144H108.325C108.494 26.5119 108.579 25.9519 108.579 25.9344H105.727Z" fill="white"/>
<path d="M114.69 19.2144H118.812C118.782 19.2844 117.972 21.0519 116.379 24.5169H117.263L116.09 31.9194C115.98 32.6194 115.924 32.9811 115.924 33.0044H113.71V32.9956C113.786 32.4998 114.189 29.9506 114.918 25.3481H113.465C113.5 25.2606 114.262 23.6652 115.749 20.5619C116.017 20.0136 116.16 19.7161 116.178 19.6694C116.038 19.5819 115.793 19.4856 115.443 19.3806C115.07 19.2756 114.819 19.2231 114.69 19.2231V19.2144ZM121.052 19.2144H125.777L125.934 20.2469H130.16H130.178C129.991 21.3961 129.898 21.9794 129.898 21.9969H118.462V21.9881C118.473 21.8948 118.564 21.3144 118.733 20.2469H122.784C122.732 19.9086 122.702 19.7219 122.697 19.6869C122.457 19.5527 122.195 19.4506 121.909 19.3806C121.495 19.2756 121.209 19.2231 121.052 19.2231V19.2144ZM119.415 22.8019H128.743L128.472 24.5519H119.144L119.415 22.8019ZM118.75 25.3044H128.612H128.62L128.34 27.0631H118.479V27.0544C118.479 27.0311 118.57 26.4477 118.75 25.3044ZM118.208 27.9644H128.244C127.842 30.5311 127.632 31.8494 127.614 31.9194C126.78 32.6427 126.36 33.0044 126.354 33.0044H118.505C117.905 32.2927 117.601 31.9311 117.595 31.9194C117.595 31.9019 117.8 30.5836 118.208 27.9644ZM120.553 29.7581C120.401 30.709 120.325 31.199 120.325 31.2281H125.112C125.117 31.1581 125.196 30.6681 125.348 29.7581H120.553Z" fill="white"/>
<path d="M136.327 19.1444H140.825L140.16 23.3794H145.803L145.497 25.2694H140.002C142.89 29.3411 144.412 31.4819 144.57 31.6919C144.581 31.7094 144.888 32.144 145.488 32.9956V33.0044H142.382C142.353 32.9811 141.198 31.5198 138.917 28.6206C138.433 28.0198 138.182 27.7019 138.165 27.6669C138.083 27.7369 137.651 28.1511 136.87 28.9094L133.685 31.9806L132.635 32.9956C132.623 33.0015 132.611 33.0044 132.6 33.0044H129.257C129.286 32.9694 130.427 31.8406 132.678 29.6181L137.097 25.2694H131.663L131.961 23.3794H137.535L138.103 19.7831C137.917 19.6548 137.602 19.5119 137.158 19.3544C136.715 19.2202 136.438 19.1531 136.327 19.1531V19.1444Z" fill="white"/>
<path d="M150.812 19.0831H154.715L154.732 19.0919L154.373 21.3231H154.802C154.808 21.3231 154.913 21.0286 155.117 20.4394C155.123 20.4394 155.228 20.1536 155.432 19.5819H157.252L156.613 21.3231H157.558L157.576 21.3319C157.395 22.4286 157.299 23.0206 157.287 23.1081H154.093C154.064 23.2948 153.91 24.2602 153.63 26.0044H151.328C151.328 25.9927 151.48 25.0273 151.783 23.1081H148.73L149.01 21.3231H149.832L149.745 19.5906L149.762 19.5819H151.565C151.611 20.6786 151.635 21.259 151.635 21.3231H152.072C152.253 20.1565 152.343 19.5644 152.343 19.5469H152.335C152.107 19.4302 151.818 19.3223 151.468 19.2231C151.288 19.1706 151.069 19.1269 150.812 19.0919V19.0831ZM157.322 19.1356H160.936V19.1444C160.936 19.1619 160.869 19.4681 160.735 20.0631H164.401L164.077 22.1544H163.806L163.438 24.4556C161.852 27.1448 161.056 28.5011 161.05 28.5244L162.581 32.9956H159.947L159.396 31.0969C159.396 31.0969 159.014 31.7298 158.25 32.9956H156.648C156.304 32.9956 156.08 32.9986 155.975 33.0044C155.782 32.9986 155.54 32.9956 155.248 32.9956H152.947C152.282 32.4415 151.935 32.1527 151.906 32.1294H151.897C151.886 32.1469 151.588 32.3569 151.005 32.7594C150.795 32.9169 150.678 32.9956 150.655 32.9956H147.207C147.213 32.984 148.283 32.2694 150.418 30.8519C149.543 30.1227 149.056 29.7144 148.957 29.6269L149.15 28.4281H148.126L148.406 26.6606H149.438C149.468 26.3806 149.491 26.2406 149.508 26.2406H151.932V26.2494L151.862 26.6606H153.656L153.726 26.2669H156.22C156.22 26.2786 156.196 26.4098 156.15 26.6606H157.182C157.153 26.8473 157.06 27.4365 156.902 28.4281H155.87V28.4369C155.794 29.0377 155.736 29.4373 155.695 29.6356C154.417 30.5048 153.767 30.954 153.743 30.9831C153.767 31.0123 154.481 31.6161 155.887 32.7944C155.946 32.7127 156.587 31.6598 157.812 29.6356C158.18 29.0465 158.396 28.6877 158.46 28.5594L157.707 25.2606C157.859 24.304 157.935 23.814 157.935 23.7906H160.14C160.023 24.514 159.962 24.9019 159.956 24.9544L160.175 26.1356H160.183C160.936 24.6656 161.312 23.9248 161.312 23.9131L161.592 22.1544H160.078C159.892 22.7669 159.769 23.1665 159.711 23.3531H157.567C158.366 20.9148 158.766 19.6869 158.766 19.6694C158.533 19.5119 158.238 19.3777 157.882 19.2669C157.585 19.1852 157.398 19.1444 157.322 19.1444V19.1356ZM149.552 23.3531H151.346C151.346 23.3648 150.993 24.2252 150.287 25.9344H148.467C149.173 24.2719 149.535 23.4115 149.552 23.3531ZM154.601 23.3531H156.386C156.386 23.394 156.473 24.2544 156.648 25.9344H154.828C154.677 24.2719 154.601 23.4115 154.601 23.3531ZM151.582 28.4281C151.536 28.7023 151.509 28.8715 151.503 28.9356C151.935 29.3848 152.177 29.6356 152.23 29.6881C152.236 29.6881 152.594 29.4373 153.306 28.9356C153.353 28.6615 153.379 28.4923 153.385 28.4281H151.582Z" fill="white"/>
<path d="M167.467 19.1444H171.562V19.1531L171.23 21.2969H172.376L172.07 23.2044H170.915L170.582 25.3131L171.842 24.7794V24.7969C171.65 26.0452 171.539 26.7481 171.51 26.9056C170.833 27.1798 170.413 27.3548 170.25 27.4306C169.795 30.324 169.556 31.8231 169.532 31.9281C169.521 31.934 169.369 32.0623 169.077 32.3131C168.611 32.7215 168.342 32.9519 168.272 33.0044H165.822C166.003 31.8669 166.099 31.2515 166.111 31.1581H167.179V31.1494L167.634 28.2356H167.625C166.715 28.5798 166.257 28.7519 166.251 28.7519V28.7431L166.584 26.6344C166.718 26.5877 167.181 26.4127 167.975 26.1094C168.278 24.1902 168.43 23.2219 168.43 23.2044H167.161L167.144 23.1956L167.45 21.2969H168.736C168.736 21.2852 168.821 20.7486 168.99 19.6869C168.774 19.5586 168.552 19.4565 168.325 19.3806C167.864 19.229 167.578 19.1531 167.467 19.1531V19.1444ZM171.877 19.3369H182.649C182.252 21.8277 182.045 23.1198 182.027 23.2131C181.24 23.9015 180.823 24.2602 180.776 24.2894H174.949C174.739 25.2927 174.634 25.8061 174.634 25.8294H177.302L177.46 24.7969H179.464L179.306 25.8294H181.774V25.8381C181.704 26.3165 181.61 26.9115 181.494 27.6231H179.035C179.023 27.6231 178.997 27.7748 178.956 28.0781C178.95 28.0898 178.933 28.1686 178.904 28.3144L178.921 28.3231H181.091C180.747 30.5398 180.557 31.7415 180.522 31.9281C180.499 31.9398 180.368 32.0506 180.129 32.2606C179.586 32.7331 179.297 32.9811 179.262 33.0044H175.132C175.068 32.9402 174.762 32.5786 174.214 31.9194L174.774 28.3231H176.9L177.022 27.6231H174.249C173.729 30.0906 173.356 31.8698 173.129 32.9606H170.871C171.892 27.6115 172.455 24.6919 172.56 24.2019C173.091 21.4136 173.362 19.9815 173.374 19.9056C173.169 19.7656 172.913 19.6431 172.604 19.5381C172.417 19.474 172.175 19.4098 171.877 19.3456V19.3369ZM175.526 21.1044C175.334 22.0377 175.237 22.5131 175.237 22.5306H179.884C180.035 21.5973 180.111 21.1219 180.111 21.1044H175.526ZM176.48 30.0206L176.27 31.3506H178.65L178.869 30.0206H176.48Z" fill="white"/>
<path d="M193.047 19.3369V19.3456C192.872 20.5065 192.773 21.1248 192.75 21.2006C191.513 21.2998 190.866 21.3494 190.807 21.3494C190.784 21.4136 190.711 21.854 190.589 22.6706C190.583 22.6881 190.539 22.9506 190.457 23.4581H192.601L192.304 25.3569H190.151C189.375 30.2452 188.976 32.7944 188.952 33.0044H186.52C187.249 28.4427 187.655 25.8936 187.736 25.3569H185.076C185.088 25.2811 185.187 24.6481 185.374 23.4581H188.034C188.185 22.4956 188.285 21.8715 188.331 21.5856H188.322C186.782 21.6848 185.986 21.7344 185.934 21.7344L186.17 20.2556C185.989 20.1798 185.75 20.1156 185.452 20.0631C185.126 20.0106 184.933 19.9844 184.875 19.9844V19.9756L193.047 19.3369ZM193.161 19.5994H200.625C200.625 19.6227 200.208 22.2711 199.374 27.5444C198.96 30.1577 198.744 31.5169 198.726 31.6219C198.72 31.6219 198.3 31.9836 197.466 32.7069H193.389C193.371 32.7011 193.062 32.3365 192.461 31.6131C193.313 26.2465 193.75 23.5077 193.774 23.3969L194.299 19.9494C194.141 19.8736 193.917 19.7919 193.625 19.7044C193.467 19.6636 193.313 19.6315 193.161 19.6081V19.5994ZM196.232 21.4281L194.92 29.6619L194.727 30.8956H196.687C197.545 25.4473 197.982 22.6881 198 22.6181C198 22.6006 198.061 22.204 198.184 21.4281H196.232ZM185.487 26.1619H187.369C186.476 30.1636 186.004 32.2665 185.951 32.4706H184.07V32.4619C184.128 32.2052 184.601 30.1052 185.487 26.1619ZM192.111 26.1619L192.129 26.1706C192.117 26.2348 191.922 28.3348 191.542 32.4706H189.652C190.026 28.3698 190.221 26.2669 190.239 26.1619H192.111Z" fill="white"/>
<path d="M204.216 20.1419H211.339L211.811 31.5606H209.073L209.003 27.8156H205.581C205.575 27.8156 205.342 28.4311 204.881 29.6619C204.426 30.8869 204.193 31.5198 204.181 31.5606H201.688C204.313 24.3098 205.625 20.6756 205.625 20.6581C205.258 20.4365 204.916 20.2936 204.601 20.2294C204.403 20.1769 204.275 20.1506 204.216 20.1506V20.1419ZM206.299 26.0831H208.968C208.962 23.7206 208.956 22.4694 208.95 22.3294H207.568C207.55 22.3294 207.127 23.5806 206.299 26.0831Z" fill="white"/>
<path d="M213.758 20.2994H218.08L216.803 28.0606C216.791 28.1365 216.596 29.3031 216.216 31.5606H213.495C214.353 26.5265 214.802 23.8811 214.843 23.6244C215.099 22.0611 215.245 21.1277 215.28 20.8244C215.123 20.6902 214.886 20.5765 214.571 20.4831C214.297 20.4131 214.026 20.3548 213.758 20.3081V20.2994Z" fill="white"/>
<path d="M225.644 19.0044H229.993L230.01 19.0131C229.993 19.089 229.888 19.7598 229.695 21.0256H235.4C234.514 26.6373 234.064 29.4636 234.053 29.5044C234.053 29.5277 233.991 29.5861 233.869 29.6794C233.869 29.6852 233.51 29.9915 232.793 30.5981H228.181C228.17 30.5981 228.152 30.7002 228.129 30.9044C228.117 30.9394 228.004 31.6394 227.788 33.0044H225.171L225.556 30.5981H220.875C220.794 30.5106 220.487 30.1519 219.956 29.5219L221.181 21.7519C220.995 21.5186 220.814 21.3669 220.639 21.2969C220.516 21.2269 220.283 21.1511 219.939 21.0694C219.805 21.0461 219.726 21.0344 219.703 21.0344V21.0256H227.07L227.315 19.4506C227.134 19.3398 226.907 19.2523 226.633 19.1881C226.429 19.1356 226.099 19.0773 225.644 19.0131V19.0044ZM223.623 22.9156C223.611 23.0148 223.308 24.9486 222.713 28.7169H225.854C226.396 25.2694 226.703 23.3356 226.773 22.9156H223.623ZM229.398 22.9156L228.47 28.7169H231.559C231.623 28.2736 231.926 26.3427 232.469 22.9244L232.46 22.9156H229.398Z" fill="white"/>
<path d="M246.245 19.3019H248.634C248.348 24.5169 248.205 27.1536 248.205 27.2119H245.729L246.228 19.5644C246.239 19.4536 246.245 19.3661 246.245 19.3019ZM240.952 20.0369H245.152V20.0456L243.874 28.1219C243.559 30.0761 243.402 31.0648 243.402 31.0881H249.098C248.905 32.3306 248.806 32.9694 248.8 33.0044H241.599C241.57 32.9752 241.398 32.774 241.083 32.4006C240.82 32.0856 240.689 31.9223 240.689 31.9106L241.923 23.9831C242.29 21.714 242.474 20.5677 242.474 20.5444C242.025 20.2994 241.517 20.1331 240.952 20.0456V20.0369ZM239.158 20.6319H241.477C241.477 20.6494 240.981 23.2715 239.989 28.4981C239.417 31.479 239.132 32.9811 239.132 33.0044H236.813V32.9956C236.859 32.7448 237.396 29.9156 238.423 24.5081C238.913 21.9473 239.158 20.6552 239.158 20.6319ZM250.533 20.6319H252.86C252.86 20.6377 252.86 20.6494 252.86 20.6669L252.379 28.3231C252.187 31.3506 252.09 32.9111 252.09 33.0044H249.798C250.124 27.6144 250.294 24.794 250.305 24.5431C250.317 24.4556 250.393 23.1519 250.533 20.6319Z" fill="white"/>
<path d="M164.998 42.6346V37.7364H166.776C167.138 37.7364 167.428 37.7865 167.645 37.8867C167.865 37.9847 168.037 38.1373 168.159 38.3445C168.284 38.5494 168.347 38.7643 168.347 38.9893C168.347 39.1987 168.292 39.3958 168.182 39.5807C168.072 39.7656 167.906 39.9148 167.684 40.0284C167.971 40.1153 168.191 40.2634 168.344 40.4728C168.499 40.6822 168.577 40.9295 168.577 41.2146C168.577 41.444 168.529 41.6579 168.434 41.8561C168.342 42.0521 168.226 42.2036 168.088 42.3105C167.95 42.4174 167.777 42.4987 167.568 42.5544C167.361 42.6079 167.107 42.6346 166.805 42.6346H164.998ZM165.625 39.7946H166.65C166.928 39.7946 167.127 39.7756 167.248 39.7378C167.407 39.6888 167.527 39.6075 167.607 39.4938C167.689 39.3802 167.729 39.2377 167.729 39.0662C167.729 38.9036 167.692 38.761 167.616 38.6385C167.541 38.5138 167.433 38.4291 167.293 38.3846C167.153 38.3378 166.913 38.3144 166.572 38.3144H165.625V39.7946ZM165.625 42.0566H166.805C167.007 42.0566 167.15 42.0488 167.232 42.0332C167.376 42.0065 167.497 41.9619 167.594 41.8995C167.691 41.8372 167.77 41.7469 167.833 41.6289C167.895 41.5086 167.927 41.3705 167.927 41.2146C167.927 41.0319 167.881 40.8738 167.791 40.7401C167.7 40.6042 167.574 40.5096 167.413 40.4561C167.253 40.4004 167.023 40.3726 166.721 40.3726H165.625V42.0566Z" fill="white"/>
<path d="M170.871 42.6346V37.7364H171.498V42.6346H170.871Z" fill="white"/>
<path d="M176.149 40.7134V40.1387L178.157 40.1354V41.953C177.848 42.2069 177.53 42.3985 177.203 42.5277C176.875 42.6546 176.539 42.7181 176.194 42.7181C175.729 42.7181 175.305 42.6157 174.924 42.4107C174.544 42.2036 174.258 41.9051 174.064 41.5153C173.87 41.1255 173.773 40.69 173.773 40.2089C173.773 39.7322 173.869 39.2878 174.06 38.8757C174.254 38.4614 174.532 38.154 174.894 37.9535C175.257 37.7531 175.674 37.6528 176.146 37.6528C176.488 37.6528 176.798 37.7107 177.073 37.8266C177.352 37.9402 177.569 38.0994 177.727 38.3044C177.884 38.5093 178.004 38.7766 178.085 39.1063L177.52 39.2666C177.449 39.0172 177.36 38.8211 177.255 38.6786C177.149 38.536 176.998 38.4224 176.802 38.3378C176.606 38.2509 176.388 38.2075 176.149 38.2075C175.862 38.2075 175.614 38.2531 175.405 38.3445C175.196 38.4336 175.027 38.5516 174.898 38.6986C174.771 38.8457 174.671 39.0071 174.6 39.1831C174.48 39.4861 174.419 39.8146 174.419 40.1688C174.419 40.6054 174.491 40.9707 174.636 41.2647C174.782 41.5587 174.995 41.777 175.273 41.9196C175.551 42.0621 175.846 42.1334 176.159 42.1334C176.43 42.1334 176.695 42.08 176.954 41.973C177.213 41.8639 177.409 41.7481 177.542 41.6256V40.7134H176.149Z" fill="white"/>
<path d="M183.576 42.6346V37.7364H185.208C185.577 37.7364 185.858 37.7598 186.052 37.8065C186.324 37.8711 186.555 37.9881 186.747 38.1574C186.997 38.3757 187.184 38.6552 187.307 38.996C187.432 39.3346 187.494 39.7222 187.494 40.1588C187.494 40.5307 187.452 40.8604 187.368 41.1478C187.284 41.4351 187.176 41.6734 187.045 41.8628C186.913 42.0499 186.769 42.198 186.612 42.3072C186.456 42.4141 186.268 42.4954 186.046 42.5511C185.826 42.6068 185.573 42.6346 185.286 42.6346H183.576ZM184.203 42.0566H185.215C185.527 42.0566 185.772 42.0265 185.949 41.9664C186.128 41.9062 186.27 41.8216 186.376 41.7124C186.524 41.5587 186.64 41.3527 186.721 41.0943C186.806 40.8337 186.848 40.5185 186.848 40.1487C186.848 39.6364 186.766 39.2433 186.602 38.9693C186.44 38.6931 186.243 38.5082 186.01 38.4146C185.842 38.3478 185.572 38.3144 185.199 38.3144H184.203V42.0566Z" fill="white"/>
<path d="M189.164 42.6346L190.984 37.7364H191.66L193.6 42.6346H192.886L192.333 41.1511H190.351L189.83 42.6346H189.164ZM190.532 40.6232H192.139L191.644 39.2666C191.493 38.8546 191.381 38.516 191.308 38.2509C191.247 38.565 191.162 38.8768 191.052 39.1865L190.532 40.6232Z" fill="white"/>
<path d="M196.14 42.6346V38.3144H194.578V37.7364H198.335V38.3144H196.767V42.6346H196.14Z" fill="white"/>
<path d="M199.294 42.6346L201.114 37.7364H201.79L203.73 42.6346H203.015L202.462 41.1511H200.48L199.96 42.6346H199.294ZM200.662 40.6232H202.268L201.774 39.2666C201.623 38.8546 201.511 38.516 201.437 38.2509C201.377 38.565 201.292 38.8768 201.182 39.1865L200.662 40.6232Z" fill="white"/>
<path d="M207.464 42.6346L209.285 37.7364H209.96L211.9 42.6346H211.186L210.633 41.1511H208.651L208.13 42.6346H207.464ZM208.832 40.6232H210.439L209.944 39.2666C209.793 38.8546 209.681 38.516 209.608 38.2509C209.548 38.565 209.462 38.8768 209.353 39.1865L208.832 40.6232Z" fill="white"/>
<path d="M213.832 42.6346V37.7364H214.459V42.6346H213.832Z" fill="white"/>
<path d="M223.441 40.9172L224.069 41.0809C223.937 41.6133 223.7 42.0198 223.357 42.3005C223.017 42.5789 222.6 42.7181 222.106 42.7181C221.595 42.7181 221.179 42.6112 220.858 42.3974C220.539 42.1813 220.296 41.8695 220.127 41.4618C219.962 41.0542 219.879 40.6165 219.879 40.1487C219.879 39.6386 219.972 39.1943 220.16 38.8156C220.349 38.4347 220.618 38.1462 220.965 37.9502C221.314 37.752 221.698 37.6528 222.116 37.6528C222.59 37.6528 222.989 37.7776 223.312 38.027C223.635 38.2765 223.861 38.6274 223.988 39.0795L223.37 39.2299C223.26 38.8735 223.101 38.614 222.892 38.4514C222.683 38.2888 222.42 38.2075 222.103 38.2075C221.739 38.2075 221.434 38.2977 221.188 38.4781C220.944 38.6585 220.773 38.9013 220.674 39.2065C220.575 39.5094 220.525 39.8224 220.525 40.1454C220.525 40.5619 220.583 40.9261 220.7 41.238C220.818 41.5476 221.001 41.7792 221.249 41.9329C221.497 42.0866 221.766 42.1635 222.054 42.1635C222.406 42.1635 222.703 42.0588 222.947 41.8494C223.19 41.64 223.355 41.3293 223.441 40.9172Z" fill="white"/>
<path d="M226.182 42.6346V37.7364H229.609V38.3144H226.809V39.8146H229.431V40.3893H226.809V42.0566H229.719V42.6346H226.182Z" fill="white"/>
<path d="M231.903 42.6346V37.7364H232.546L235.036 41.5821V37.7364H235.637V42.6346H234.994L232.504 38.7855V42.6346H231.903Z" fill="white"/>
<path d="M239.224 42.6346V38.3144H237.663V37.7364H241.419V38.3144H239.851V42.6346H239.224Z" fill="white"/>
<path d="M243.403 42.6346V37.7364H246.83V38.3144H244.03V39.8146H246.652V40.3893H244.03V42.0566H246.94V42.6346H243.403Z" fill="white"/>
<path d="M249.141 42.6346V37.7364H251.242C251.664 37.7364 251.986 37.7809 252.205 37.87C252.425 37.9569 252.601 38.1117 252.732 38.3344C252.864 38.5572 252.93 38.8033 252.93 39.0729C252.93 39.4203 252.821 39.7133 252.603 39.9516C252.385 40.1899 252.049 40.3414 251.594 40.406C251.76 40.4884 251.886 40.5697 251.973 40.6499C252.156 40.8237 252.329 41.0408 252.493 41.3015L253.318 42.6346H252.529L251.902 41.6155C251.718 41.3215 251.567 41.0965 251.449 40.9406C251.33 40.7847 251.224 40.6755 251.129 40.6132C251.036 40.5508 250.941 40.5074 250.844 40.4829C250.773 40.4673 250.657 40.4595 250.495 40.4595H249.768V42.6346H249.141ZM249.768 39.8981H251.116C251.403 39.8981 251.627 39.8681 251.788 39.8079C251.95 39.7456 252.073 39.6475 252.157 39.5139C252.241 39.378 252.283 39.231 252.283 39.0729C252.283 38.8412 252.201 38.6507 252.037 38.5015C251.876 38.3523 251.619 38.2776 251.268 38.2776H249.768V39.8981Z" fill="white"/>
<path d="M39.6472 13.6741C40.2842 10.8362 39.4756 10.8314 36.8577 12.02C32.7609 13.9451 19.702 11.0537 15.7559 8.23297C14.555 7.34391 14.2532 7.04533 12.431 7.62818C10.221 8.33505 10.8755 8.95987 12.4244 11.0108C15.3458 14.9496 19.6894 25.7652 20.1674 29.9148C20.6786 34.3172 22.3965 33.8116 23.2071 31.2694C23.6881 29.7546 23.9014 28.7644 23.0568 26.7955C21.8588 23.9299 18.4889 15.6564 17.0961 12.2824C20.9868 14.0672 31.6457 16.3213 35.1137 16.8364C36.7254 17.1111 37.4325 17.0606 38.2754 16.0446C38.7102 15.5104 39.4662 14.3466 39.6472 13.6741Z" fill="#E34234"/>
<path d="M32.9161 45.3088C34.9757 47.298 35.384 46.5766 35.6969 43.6392C36.1322 39.01 45.0845 28.7678 49.4213 26.6464C50.7667 26.0161 51.1678 25.8952 51.5905 23.9729C52.1031 21.6416 51.2523 21.9149 48.7593 22.2757C43.9979 22.921 32.7629 21.4008 29.0466 19.7538C25.1019 18.0102 24.6666 19.8005 26.3917 21.7971C27.4206 22.985 28.1437 23.671 30.2159 23.8996C33.2162 24.2601 41.8341 25.3807 45.3578 25.8212C41.9169 28.411 34.6985 36.8238 32.5329 39.6702C31.4968 40.9753 31.1856 41.6335 31.6155 42.8958C31.8458 43.552 32.443 44.8106 32.9161 45.3088Z" fill="white"/>
<path d="M9.77465 23.468C7.078 24.3168 7.47832 25.0429 9.78331 26.7917C13.4448 29.4958 17.5514 42.6294 17.1607 47.5716C17.0162 49.0909 16.9169 49.5104 18.3164 50.8498C20.0137 52.4743 20.2101 51.5761 21.1543 49.1644C22.9942 44.5803 29.8856 35.2849 33.1238 32.7823C36.5573 30.1235 35.2747 28.8388 32.7391 29.3844C31.2292 29.7113 30.2928 30.0156 29.0652 31.7559C27.2629 34.261 22.0149 41.4138 19.884 44.3474C19.4342 39.9727 15.9937 29.3058 14.6913 25.9443C14.1156 24.3645 13.7197 23.7569 12.447 23.5105C11.7819 23.3885 10.4287 23.2937 9.77465 23.468Z" fill="white"/>
<g filter="url(#filter0_d_64_12436)">
<path d="M277.281 13.6919H290.795L291.691 35.3569H286.495L286.362 28.2515H279.871C279.86 28.2515 279.417 29.4191 278.543 31.7544C277.68 34.0786 277.237 35.2795 277.215 35.3569H272.483C277.464 21.5998 279.954 14.7046 279.954 14.6714C279.257 14.2508 278.609 13.9797 278.012 13.8579C277.635 13.7583 277.392 13.7085 277.281 13.7085V13.6919ZM281.232 24.9644H286.296C286.285 20.4819 286.274 18.1079 286.263 17.8423H283.64C283.606 17.8423 282.804 20.2163 281.232 24.9644ZM296.364 13.9907H304.565L302.142 28.7163C302.119 28.8602 301.749 31.0737 301.029 35.3569H295.866C297.493 25.8055 298.345 20.7863 298.423 20.2993C298.91 17.3332 299.187 15.5623 299.253 14.9868C298.954 14.7323 298.506 14.5164 297.908 14.3394C297.388 14.2065 296.873 14.0959 296.364 14.0073V13.9907ZM309.421 11.7993H316.46L316.194 12.4136H324.711C324.711 12.4357 324.545 13.5148 324.213 15.6509H320.494C320.317 16.7355 320.229 17.3 320.229 17.3442H324.429L323.914 20.5815H320.395L323.947 24.9478H318.552C318.463 24.7707 318.021 24.0125 317.224 22.6733H317.207L314.385 24.9478H309.006C309.117 24.826 310.411 23.8188 312.891 21.9263C314.031 21.0409 314.612 20.5926 314.634 20.5815H310.434C310.434 20.5594 310.605 19.4803 310.948 17.3442H315.763L316.045 15.6509H314.85C314.827 15.6509 314.722 15.922 314.534 16.4644C314.523 16.4976 314.518 16.5308 314.518 16.564H310.533L312.077 12.7954V12.7788C311.668 12.5132 311.197 12.2863 310.666 12.0981C310.201 11.9653 309.786 11.8713 309.421 11.8159V11.7993ZM324.312 12.0483H338.158L336.481 22.6235L334.091 24.6821H326.67C326.659 24.6821 326.072 23.9959 324.91 22.6235C325.939 16.1711 326.454 12.9282 326.454 12.895C325.901 12.4855 325.187 12.2088 324.312 12.0649V12.0483ZM330.455 15.8667L329.658 20.8472H332.298C332.796 17.7703 333.056 16.1102 333.078 15.8667H330.455ZM336.232 25.894C335.192 32.4683 334.661 35.8494 334.639 36.0376L332.248 38.0962H310.367C310.223 37.9523 309.642 37.2661 308.624 36.0376C309.675 29.3527 310.212 25.9715 310.234 25.894H336.232ZM314.152 29.397C314.042 29.9725 313.986 30.2935 313.986 30.3599H331.053C331.086 30.3599 331.13 30.1053 331.186 29.5962C331.197 29.5962 331.208 29.5298 331.219 29.397H314.152ZM313.455 33.6636L313.306 34.6265H330.405V34.6099C330.405 34.5877 330.455 34.2723 330.555 33.6636H313.455ZM345.57 11.7827H353.29V11.7993C353.035 12.1646 352.1 13.465 350.484 15.7007H353.854C353.633 14.2729 353.511 13.5148 353.489 13.4263H357.756C357.778 13.4263 357.828 13.7583 357.905 14.4224L358.735 19.9009H354.635L354.452 19.3862H345.371C345.349 19.3641 345.144 18.9269 344.757 18.0747C344.624 17.8534 344.535 17.6652 344.491 17.5103L348.027 12.6294V12.6128C347.341 12.2476 346.522 11.9764 345.57 11.7993V11.7827ZM357.822 11.7827H365.193L365.227 11.7993L364.679 15.2856L372.249 11.8657V11.8823C372.216 12.0815 371.989 13.5037 371.568 16.1489C366.92 18.3071 364.391 19.4858 363.981 19.6851L363.799 20.7808H367.833C367.833 20.7365 367.927 20.1112 368.115 18.9048H372.083C371.795 20.7642 371.618 21.8875 371.552 22.2749L369.161 24.3335H360.943C359.914 23.116 359.339 22.4243 359.217 22.2583V22.2417L360.694 12.8286C359.676 12.2642 358.719 11.9211 357.822 11.7993V11.7827ZM344.641 20.2827H358.038C356.61 29.159 355.836 34.0565 355.714 34.9751C355.603 35.617 355.542 35.9712 355.531 36.0376L353.141 38.0962H348.658L348.625 38.0796L349.206 34.5103H351.397C351.42 34.5103 351.453 34.3221 351.497 33.9458C351.508 33.9126 351.569 33.5695 351.68 32.9165H347.031C347.009 32.9165 346.97 33.1323 346.915 33.564C346.904 33.5861 346.66 35.0968 346.185 38.0962H341.868L341.835 38.0796C343.274 29.0373 344.082 23.9351 344.259 22.7729C344.447 21.6219 344.574 20.7918 344.641 20.2827ZM348.509 23.4038V23.4204C348.509 23.4425 348.431 23.9461 348.276 24.9312H352.941C353.074 24.0568 353.152 23.5477 353.174 23.4038H348.509ZM358.735 25.23H363.102V25.2466L362.554 28.7163H362.57C367.595 26.5581 370.118 25.479 370.141 25.479V25.4956C370.118 25.6506 369.892 27.0894 369.46 29.812C369.194 29.9227 366.665 30.9631 361.873 32.9331L361.607 34.6431H365.509L365.857 32.4517H370.008C369.997 32.5734 369.809 33.7687 369.443 36.0376C367.927 37.3436 367.125 38.0298 367.036 38.0962H358.785C358.674 37.9855 358.199 37.4211 357.357 36.4028L357.025 36.0376C357.236 34.798 357.806 31.1955 358.735 25.23ZM347.729 28.2847C347.64 28.9266 347.579 29.3527 347.546 29.563H352.178C352.2 29.563 352.239 29.3472 352.294 28.9155C352.305 28.9155 352.344 28.7052 352.41 28.2847H347.729ZM383.762 12.397H392.295V12.4136C386.96 17.8921 384.138 20.7863 383.828 21.0962C383.817 21.1294 383.629 21.3231 383.264 21.6772H377.553C378.217 21.0021 381.022 18.1854 385.97 13.2271V13.2104C385.649 13.0223 385.284 12.8507 384.874 12.6958C384.542 12.5962 384.171 12.5021 383.762 12.4136V12.397ZM394.868 12.397H400.363L406.688 21.6772H400.978L394.868 12.397ZM379.545 22.7729H404.148C402.787 31.4832 402.09 35.9048 402.057 36.0376C402.035 36.0487 401.769 36.2811 401.26 36.7349L399.666 38.0962H389.522V38.0796C389.522 38.0464 389.694 36.9285 390.037 34.7261H397.292L398.637 26.2261H389.323C389.257 26.3478 387.093 29.3582 382.832 35.2573L380.773 38.0962H375.909V38.0796L380.126 32.1694C382.86 28.3179 384.265 26.3368 384.343 26.2261H378.98L379.545 22.7729ZM442.058 11.5669C441.681 14.0018 441.482 15.2414 441.46 15.2856C441.449 15.2967 441.438 15.3022 441.427 15.3022C441.128 15.3133 437.852 15.507 431.599 15.8833C431.112 18.7941 430.868 20.2661 430.868 20.2993H441.759V20.3159C441.46 22.2749 441.272 23.4647 441.194 23.8853H439.036C438.881 24.8813 438.129 29.6183 436.778 38.0962H432.329C432.362 37.7974 433.109 33.0604 434.57 23.8853H430.287L427.88 37.2661L427.73 38.0962H423.032C424.847 28.5558 425.777 23.6584 425.821 23.4038C425.921 22.8836 426.541 19.6021 427.681 13.5591H427.664C426.314 12.9836 425.368 12.6958 424.825 12.6958C424.825 12.6737 424.836 12.6626 424.858 12.6626C425.113 12.6626 430.514 12.3195 441.062 11.6333L442.058 11.5669ZM415.13 11.7993H422.883L422.916 11.8159C422.695 13.1551 422.518 14.2896 422.385 15.2192H425.506C425.174 17.3885 424.991 18.5451 424.958 18.689H421.854C421.82 18.689 421.787 18.8439 421.754 19.1538C420.525 26.8348 419.834 31.1789 419.679 32.186C419.657 32.3521 419.347 34.3221 418.749 38.0962H414.001C414.023 38.0076 414.831 32.9054 416.425 22.7896C416.458 22.6457 416.679 21.2788 417.089 18.689H413.354V18.6724L413.901 15.2192H417.637C417.88 13.7251 418.002 12.9393 418.002 12.8618H417.985C416.868 12.2752 415.916 11.9266 415.13 11.8159V11.7993ZM416.475 20.6479V20.6646C416.43 20.9191 415.451 25.6948 413.536 34.9917C413.337 35.9878 413.215 36.5633 413.171 36.7183H410.349V36.7017C410.393 36.4803 411.312 31.8983 413.104 22.9556C413.403 21.4614 413.564 20.6922 413.586 20.6479H416.475ZM424.41 20.6479L424.443 20.6646C424.41 20.8638 423.79 26.215 422.584 36.7183H420.011V36.7017C420.011 36.6685 420.553 31.7876 421.638 22.0591C421.737 21.1847 421.798 20.7144 421.82 20.6479H424.41ZM446.033 12.5132H474.538L474.571 12.5298C474.217 14.7212 474.018 15.9165 473.974 16.1157H463.647L462.27 24.9478H473.326L472.745 28.5337L472.712 28.5503H461.672V28.5669C461.672 28.6222 461.168 31.7987 460.161 38.0962H455.214V38.0796C455.236 37.9136 455.734 34.7371 456.708 28.5503H445.718V28.5337C445.74 28.3455 445.928 27.1502 446.282 24.9478H457.272C458.191 19.2147 458.661 16.2707 458.684 16.1157H448.54L448.523 16.0991C448.767 14.605 448.894 13.7638 448.905 13.5757C448.418 13.2879 447.671 12.9891 446.664 12.6792C446.255 12.5796 446.044 12.5298 446.033 12.5298V12.5132ZM450.084 17.062H454.4L454.849 24.0347L454.815 24.0513H450.565C450.543 24.0513 450.521 23.769 450.499 23.2046C450.488 23.1825 450.35 21.1349 450.084 17.062ZM471.849 17.062C471.815 17.2059 471.301 18.5562 470.305 21.1128C470.205 21.4116 469.84 22.3911 469.209 24.0513H464.926L464.893 24.0347L467.565 17.062H471.849ZM482.332 11.9321H490.766C490.611 12.1978 489.371 14.1955 487.047 17.9253H501.025C501.025 17.9032 500.671 16.5695 499.963 13.9243H505.242C505.275 13.9243 505.397 14.4556 505.607 15.5181C506.592 19.9009 507.107 22.2362 507.151 22.5239H502.005C501.983 22.5239 501.916 22.3026 501.806 21.8599C501.784 21.8267 501.772 21.7935 501.772 21.7603H480.971C480.594 20.8859 480.323 20.2827 480.157 19.9507L485.104 12.7456C484.374 12.4357 483.638 12.2033 482.896 12.0483C482.598 11.9819 482.41 11.9487 482.332 11.9487V11.9321ZM480.141 24.0513H505.79L503.897 36.0376L501.507 38.0962H479.975C479.93 38.0519 479.36 37.3713 478.265 36.0542L478.231 36.0376C479.394 28.6665 480.03 24.6711 480.141 24.0513ZM484.54 27.6206C483.909 31.5607 483.544 33.8849 483.444 34.5933H499.149L500.245 27.6206H484.54Z" fill="white"/>
</g>
<defs>
<filter id="filter0_d_64_12436" x="266.483" y="5.56689" width="246.668" height="38.5293" filterUnits="userSpaceOnUse" color-interpolation-filters="sRGB">
<feFlood flood-opacity="0" result="BackgroundImageFix"/>
<feColorMatrix in="SourceAlpha" type="matrix" values="0 0 0 0 0 0 0 0 0 0 0 0 0 0 0 0 0 0 127 0" result="hardAlpha"/>
<feOffset/>
<feGaussianBlur stdDeviation="3"/>
<feColorMatrix type="matrix" values="0 0 0 0 0.133333 0 0 0 0 0.584 0 0 0 0 1 0 0 0 1 0"/>
<feBlend mode="normal" in2="BackgroundImageFix" result="effect1_dropShadow_64_12436"/>
<feBlend mode="normal" in="SourceGraphic" in2="effect1_dropShadow_64_12436" result="shape"/>
</filter>
</defs>
</svg>
