<svg width="276" height="272" viewBox="0 0 276 272" fill="none" xmlns="http://www.w3.org/2000/svg">
<g filter="url(#filter0_i_64_12467)">
<path fill-rule="evenodd" clip-rule="evenodd" d="M96.2287 8.02709L92.4764 1H5C2.79086 1 1 2.79085 1 4.99999V52V59V267C1 269.209 2.79086 271 5 271H271C273.209 271 275 269.209 275 267V59V52V5.00312C275 2.79398 273.209 1 271 1H184.544L181.25 7.71902C179.57 11.1452 176.087 13.3168 172.271 13.3168H105.05C101.359 13.3168 97.9674 11.2833 96.2287 8.02709Z" fill="#030733"/>
</g>
<path d="M92.4764 1L93.138 0.646731L92.9262 0.25H92.4764V1ZM96.2287 8.02709L95.5671 8.38036V8.38036L96.2287 8.02709ZM184.544 1V0.25H184.076L183.871 0.669835L184.544 1ZM181.25 7.71902L180.576 7.38886V7.38886L181.25 7.71902ZM91.8149 1.35327L95.5671 8.38036L96.8903 7.67382L93.138 0.646731L91.8149 1.35327ZM5 1.75H92.4764V0.25H5V1.75ZM1.75 4.99999C1.75 3.20507 3.20507 1.75 5 1.75V0.25C2.37665 0.25 0.25 2.37663 0.25 4.99999H1.75ZM1.75 52V4.99999H0.25V52H1.75ZM1.75 59V52H0.25V59H1.75ZM1.75 267V59H0.25V267H1.75ZM5 270.25C3.20508 270.25 1.75 268.795 1.75 267H0.25C0.25 269.623 2.37665 271.75 5 271.75V270.25ZM271 270.25H5V271.75H271V270.25ZM274.25 267C274.25 268.795 272.795 270.25 271 270.25V271.75C273.623 271.75 275.75 269.623 275.75 267H274.25ZM274.25 59V267H275.75V59H274.25ZM274.25 52V59H275.75V52H274.25ZM274.25 5.00312V52H275.75V5.00312H274.25ZM271 1.75C272.794 1.75 274.25 3.20743 274.25 5.00312H275.75C275.75 2.38053 273.624 0.25 271 0.25V1.75ZM184.544 1.75H271V0.25H184.544V1.75ZM181.923 8.04919L185.217 1.33016L183.871 0.669835L180.576 7.38886L181.923 8.04919ZM172.271 14.0668C176.373 14.0668 180.117 11.7324 181.923 8.04919L180.576 7.38886C179.023 10.5581 175.801 12.5668 172.271 12.5668V14.0668ZM105.05 14.0668H172.271V12.5668H105.05V14.0668ZM95.5671 8.38036C97.4362 11.8808 101.082 14.0668 105.05 14.0668V12.5668C101.635 12.5668 98.4986 10.6858 96.8903 7.67381L95.5671 8.38036Z" fill="#2C79EE" fill-opacity="0.45"/>
<path d="M92.4764 1L93.138 0.646731L92.9262 0.25H92.4764V1ZM96.2287 8.02709L95.5671 8.38036V8.38036L96.2287 8.02709ZM184.544 1V0.25H184.076L183.871 0.669835L184.544 1ZM181.25 7.71902L180.576 7.38886V7.38886L181.25 7.71902ZM91.8149 1.35327L95.5671 8.38036L96.8903 7.67382L93.138 0.646731L91.8149 1.35327ZM5 1.75H92.4764V0.25H5V1.75ZM1.75 4.99999C1.75 3.20507 3.20507 1.75 5 1.75V0.25C2.37665 0.25 0.25 2.37663 0.25 4.99999H1.75ZM1.75 52V4.99999H0.25V52H1.75ZM1.75 59V52H0.25V59H1.75ZM1.75 267V59H0.25V267H1.75ZM5 270.25C3.20508 270.25 1.75 268.795 1.75 267H0.25C0.25 269.623 2.37665 271.75 5 271.75V270.25ZM271 270.25H5V271.75H271V270.25ZM274.25 267C274.25 268.795 272.795 270.25 271 270.25V271.75C273.623 271.75 275.75 269.623 275.75 267H274.25ZM274.25 59V267H275.75V59H274.25ZM274.25 52V59H275.75V52H274.25ZM274.25 5.00312V52H275.75V5.00312H274.25ZM271 1.75C272.794 1.75 274.25 3.20743 274.25 5.00312H275.75C275.75 2.38053 273.624 0.25 271 0.25V1.75ZM184.544 1.75H271V0.25H184.544V1.75ZM181.923 8.04919L185.217 1.33016L183.871 0.669835L180.576 7.38886L181.923 8.04919ZM172.271 14.0668C176.373 14.0668 180.117 11.7324 181.923 8.04919L180.576 7.38886C179.023 10.5581 175.801 12.5668 172.271 12.5668V14.0668ZM105.05 14.0668H172.271V12.5668H105.05V14.0668ZM95.5671 8.38036C97.4362 11.8808 101.082 14.0668 105.05 14.0668V12.5668C101.635 12.5668 98.4986 10.6858 96.8903 7.67381L95.5671 8.38036Z" fill="url(#paint0_linear_64_12467)"/>
<path d="M178.488 1.5C178.251 6.55331 174.445 10.5 169.87 10.5H107.13C102.555 10.5 98.7485 6.55331 98.5117 1.5H178.488Z" fill="url(#paint1_linear_64_12467)" stroke="#265BAB"/>
<defs>
<filter id="filter0_i_64_12467" x="0.25" y="0.25" width="275.5" height="272.5" filterUnits="userSpaceOnUse" color-interpolation-filters="sRGB">
<feFlood flood-opacity="0" result="BackgroundImageFix"/>
<feBlend mode="normal" in="SourceGraphic" in2="BackgroundImageFix" result="shape"/>
<feColorMatrix in="SourceAlpha" type="matrix" values="0 0 0 0 0 0 0 0 0 0 0 0 0 0 0 0 0 0 127 0" result="hardAlpha"/>
<feOffset dy="1"/>
<feGaussianBlur stdDeviation="10"/>
<feComposite in2="hardAlpha" operator="arithmetic" k2="-1" k3="1"/>
<feColorMatrix type="matrix" values="0 0 0 0 0.0705882 0 0 0 0 0.556863 0 0 0 0 0.909804 0 0 0 1 0"/>
<feBlend mode="normal" in2="shape" result="effect1_innerShadow_64_12467"/>
</filter>
<linearGradient id="paint0_linear_64_12467" x1="189" y1="1" x2="189" y2="256.41" gradientUnits="userSpaceOnUse">
<stop stop-color="#007FF3" stop-opacity="0"/>
<stop offset="0.421875" stop-color="#34E7FF"/>
<stop offset="0.598958" stop-color="#34E7FF"/>
<stop offset="1" stop-color="#007FF3" stop-opacity="0"/>
</linearGradient>
<linearGradient id="paint1_linear_64_12467" x1="127.386" y1="6" x2="127.386" y2="1" gradientUnits="userSpaceOnUse">
<stop stop-color="#428EFF"/>
<stop offset="1" stop-color="#003E86"/>
</linearGradient>
</defs>
</svg>
