<svg width="40" height="40" viewBox="0 0 40 40" fill="none" xmlns="http://www.w3.org/2000/svg">
<path d="M20 39.4226L3.17948 29.7113V10.2887L20 0.57735L36.8205 10.2887V29.7113L20 39.4226Z" fill="#2467B6" fill-opacity="0.5" stroke="url(#paint0_linear_64_11123)"/>
<path d="M20.0869 25.1811C19.5633 25.1811 19.1389 24.7568 19.1389 24.2332C19.1389 23.7098 19.5633 23.2855 20.0869 23.2855C20.6102 23.2855 21.0347 23.7098 21.0347 24.2332C21.0346 24.7568 20.6102 25.1811 20.0869 25.1811ZM20.0869 22.0349C19.649 22.0349 19.2928 21.6788 19.2928 21.2408V15.3027C19.2928 14.865 19.649 14.5088 20.0869 14.5088C20.5246 14.5088 20.8807 14.865 20.8807 15.3027V21.2408C20.8807 21.6788 20.5246 22.0349 20.0869 22.0349ZM20.0868 10.7471C14.987 10.7471 10.853 14.8811 10.853 19.9809C10.853 25.0809 14.987 29.215 20.0868 29.215C25.1864 29.215 29.3205 25.0809 29.3205 19.9809C29.3205 14.8811 25.1864 10.7471 20.0868 10.7471ZM20.0868 27.9838C15.6741 27.9838 12.0842 24.3939 12.0842 19.9809C12.0842 15.5682 15.6741 11.9782 20.0868 11.9782C24.4994 11.9782 28.0893 15.5682 28.0893 19.9809C28.0893 24.3939 24.4994 27.9838 20.0868 27.9838Z" fill="#7ED8FF"/>
<defs>
<linearGradient id="paint0_linear_64_11123" x1="20" y1="0" x2="20" y2="40" gradientUnits="userSpaceOnUse">
<stop stop-color="#2BD9FF" stop-opacity="0"/>
<stop offset="0.5" stop-color="#2BD9FF"/>
<stop offset="1" stop-color="#2BD9FF" stop-opacity="0"/>
</linearGradient>
</defs>
</svg>
