<svg width="48" height="52" viewBox="0 0 48 52" fill="none" xmlns="http://www.w3.org/2000/svg">
<g filter="url(#filter0_d_60_11065)">
<g filter="url(#filter1_i_60_11065)">
<path fill-rule="evenodd" clip-rule="evenodd" d="M4.94743 13V35L24 46L43.0526 35V13L24 2L4.94743 13V13Z" fill="url(#paint0_linear_60_11065)"/>
</g>
<path d="M24 45.3072L5.54743 34.6536V13.3464L24 2.69282L42.4526 13.3464V34.6536L24 45.3072Z" stroke="#13F1FF" stroke-width="1.2"/>
<g clip-path="url(#clip0_60_11065)">
<g filter="url(#filter2_d_60_11065)">
<path d="M22.0504 36C22.0504 36 14 34.9773 14 28.6819C14 23.2345 23.4225 20.259 22.0504 13C22.0504 13 29.2297 15.292 28.9496 22.4097C28.9496 22.4097 30.0776 21.9369 30.1008 20.3181C30.1008 20.3181 34.7003 23.3167 34.7003 28.6819C34.7003 34.8463 26.6524 36 26.6524 36C26.6524 36 28.9496 34.4634 28.9496 31.8194C28.9496 29.1753 23.8568 28.3967 24.3527 24.5013C24.3501 24.5013 16.5927 28.3505 22.0504 36Z" fill="white"/>
<path d="M28.45 22.39L28.4191 23.1742L29.1429 22.8708L28.9496 22.4097C29.1429 22.8708 29.1432 22.8707 29.1434 22.8706L29.144 22.8703L29.1453 22.8698L29.1481 22.8686L29.155 22.8656L29.1737 22.8571C29.1883 22.8503 29.2069 22.8412 29.2291 22.8296C29.2734 22.8066 29.3322 22.7734 29.4005 22.7286C29.5369 22.6391 29.7138 22.5016 29.8902 22.3031C30.119 22.0457 30.3389 21.6944 30.472 21.2315C30.4801 21.2383 30.4882 21.2452 30.4964 21.2521C30.9091 21.6013 31.4607 22.1218 32.0119 22.8027C33.1157 24.1661 34.2003 26.1493 34.2003 28.6819C34.2003 31.4974 32.3781 33.1919 30.4435 34.2101C29.6884 34.6076 28.9302 34.8932 28.2856 35.0935C28.8729 34.3263 29.4496 33.2171 29.4496 31.8193C29.4496 30.9797 29.0396 30.3188 28.5279 29.768C28.1459 29.3566 27.664 28.9641 27.2005 28.5865C27.0594 28.4716 26.9201 28.3581 26.7858 28.2459C25.5854 27.2428 24.6365 26.2314 24.8487 24.5644L24.9204 24.0013H24.3527C24.253 24.0113 24.1508 24.0439 24.1441 24.0469L24.1365 24.0504L24.1308 24.0532L24.1228 24.0572L24.1013 24.0681C24.0838 24.0771 24.0594 24.0899 24.0288 24.1065C23.9674 24.1397 23.8805 24.1882 23.7732 24.2521C23.5589 24.3798 23.2622 24.5696 22.9249 24.8218C22.2531 25.3243 21.4063 26.0849 20.7358 27.108C20.0623 28.1355 19.5639 29.4327 19.6075 30.9902C19.6434 32.2743 20.0469 33.7033 20.9784 35.2732C20.9582 35.2681 20.9377 35.2629 20.9171 35.2576C20.1864 35.0695 19.2181 34.7566 18.2552 34.2578C16.3261 33.2584 14.5 31.5654 14.5 28.6819C14.5 27.4727 15.0208 26.3699 15.852 25.2528C16.4931 24.391 17.2855 23.5619 18.1207 22.6881C18.379 22.4178 18.6414 22.1432 18.9047 21.8621C20.9227 19.7073 22.9421 17.2175 22.6608 13.7833C22.7507 13.8241 22.847 13.8692 22.9486 13.9188C23.5915 14.2322 24.4439 14.7208 25.2854 15.4202C26.963 16.8146 28.5822 19.0294 28.45 22.39Z" stroke="url(#paint1_linear_60_11065)"/>
</g>
</g>
</g>
<defs>
<filter id="filter0_d_60_11065" x="0.947266" y="0" width="46.1055" height="52" filterUnits="userSpaceOnUse" color-interpolation-filters="sRGB">
<feFlood flood-opacity="0" result="BackgroundImageFix"/>
<feColorMatrix in="SourceAlpha" type="matrix" values="0 0 0 0 0 0 0 0 0 0 0 0 0 0 0 0 0 0 127 0" result="hardAlpha"/>
<feOffset dy="2"/>
<feGaussianBlur stdDeviation="2"/>
<feComposite in2="hardAlpha" operator="out"/>
<feColorMatrix type="matrix" values="0 0 0 0 0 0 0 0 0 0.186874 0 0 0 0 0.391667 0 0 0 0.6 0"/>
<feBlend mode="normal" in2="BackgroundImageFix" result="effect1_dropShadow_60_11065"/>
<feBlend mode="normal" in="SourceGraphic" in2="effect1_dropShadow_60_11065" result="shape"/>
</filter>
<filter id="filter1_i_60_11065" x="4.94727" y="2" width="38.1055" height="45" filterUnits="userSpaceOnUse" color-interpolation-filters="sRGB">
<feFlood flood-opacity="0" result="BackgroundImageFix"/>
<feBlend mode="normal" in="SourceGraphic" in2="BackgroundImageFix" result="shape"/>
<feColorMatrix in="SourceAlpha" type="matrix" values="0 0 0 0 0 0 0 0 0 0 0 0 0 0 0 0 0 0 127 0" result="hardAlpha"/>
<feOffset dy="1"/>
<feGaussianBlur stdDeviation="6"/>
<feComposite in2="hardAlpha" operator="arithmetic" k2="-1" k3="1"/>
<feColorMatrix type="matrix" values="0 0 0 0 0.075 0 0 0 0 0.9445 0 0 0 0 1 0 0 0 1 0"/>
<feBlend mode="normal" in2="shape" result="effect1_innerShadow_60_11065"/>
</filter>
<filter id="filter2_d_60_11065" x="10" y="10" width="28.7002" height="31" filterUnits="userSpaceOnUse" color-interpolation-filters="sRGB">
<feFlood flood-opacity="0" result="BackgroundImageFix"/>
<feColorMatrix in="SourceAlpha" type="matrix" values="0 0 0 0 0 0 0 0 0 0 0 0 0 0 0 0 0 0 127 0" result="hardAlpha"/>
<feOffset dy="1"/>
<feGaussianBlur stdDeviation="2"/>
<feComposite in2="hardAlpha" operator="out"/>
<feColorMatrix type="matrix" values="0 0 0 0 0.00227431 0 0 0 0 0.219698 0 0 0 0 0.545833 0 0 0 1 0"/>
<feBlend mode="normal" in2="BackgroundImageFix" result="effect1_dropShadow_60_11065"/>
<feBlend mode="normal" in="SourceGraphic" in2="effect1_dropShadow_60_11065" result="shape"/>
</filter>
<linearGradient id="paint0_linear_60_11065" x1="4.08446" y1="2" x2="4.08446" y2="41.8311" gradientUnits="userSpaceOnUse">
<stop stop-color="#2CF7F7" stop-opacity="0.01"/>
<stop stop-color="#0E4665" stop-opacity="0.12"/>
<stop offset="1" stop-color="#1C63ED" stop-opacity="0.75"/>
</linearGradient>
<linearGradient id="paint1_linear_60_11065" x1="24.3501" y1="13" x2="24.3501" y2="35.4801" gradientUnits="userSpaceOnUse">
<stop stop-color="#22F2FF"/>
<stop offset="1" stop-color="#35F3FF" stop-opacity="0"/>
</linearGradient>
<clipPath id="clip0_60_11065">
<rect width="24" height="24" fill="white" transform="translate(12 12)"/>
</clipPath>
</defs>
</svg>
