<svg width="141" height="8" viewBox="0 0 141 8" fill="none" xmlns="http://www.w3.org/2000/svg">
<path fill-rule="evenodd" clip-rule="evenodd" d="M97.7228 8L108.278 0L141 0L130.445 8L97.7228 8ZM92.8367 0L82.3664 8L90.7426 8L101.213 0L92.8367 0ZM28.6186 8L39.0889 0L85.1582 0L74.6879 8L28.6186 8ZM13.2619 8L18.6134 8L29.3164 0L23.9649 0L13.2619 8ZM4.8866 8L15.6742 0L16.7529 0L5.96535 8H4.8866ZM-0.00012207 8L10.7875 0L11.8662 0L1.07863 8H-0.00012207Z" fill="url(#paint0_linear_64_11082)"/>
<defs>
<linearGradient id="paint0_linear_64_11082" x1="0.349538" y1="0.00989981" x2="141" y2="0.00989981" gradientUnits="userSpaceOnUse">
<stop stop-color="#1CD3F3" stop-opacity="0.01"/>
<stop offset="1" stop-color="#0B6CFF"/>
</linearGradient>
</defs>
</svg>
