<svg width="1027" height="650" viewBox="0 0 1027 650" fill="none" xmlns="http://www.w3.org/2000/svg">
<g filter="url(#filter0_i_64_12447)">
<path fill-rule="evenodd" clip-rule="evenodd" d="M224.044 8.36133L219.821 1H5C2.79086 1 1 2.78779 1 4.99693V52V59.3231V645C1 647.209 2.79086 649 5 649H1022C1024.21 649 1026 647.209 1026 645V59.3231V52V4.99999C1026 2.79085 1024.21 1 1022 1H808.281L804.57 8.04564C802.84 11.3296 799.434 13.3854 795.722 13.3854H232.718C229.136 13.3854 225.827 11.4689 224.044 8.36133Z" fill="#030733"/>
</g>
<path d="M219.821 1L220.472 0.626807L220.256 0.25H219.821V1ZM224.044 8.36133L224.695 7.98814V7.98814L224.044 8.36133ZM808.281 1V0.25H807.828L807.618 0.650486L808.281 1ZM804.57 8.04564L805.234 8.39516V8.39516L804.57 8.04564ZM219.171 1.37319L223.394 8.73452L224.695 7.98814L220.472 0.626807L219.171 1.37319ZM5 1.75H219.821V0.25H5V1.75ZM1.75 4.99693C1.75 3.20276 3.20433 1.75 5 1.75V0.25C2.3774 0.25 0.25 2.37283 0.25 4.99693H1.75ZM1.75 52V4.99693H0.25V52H1.75ZM1.75 59.3231V52H0.25V59.3231H1.75ZM1.75 645V59.3231H0.25V645H1.75ZM5 648.25C3.20507 648.25 1.75 646.795 1.75 645H0.25C0.25 647.623 2.37665 649.75 5 649.75V648.25ZM1022 648.25H5V649.75H1022V648.25ZM1025.25 645C1025.25 646.795 1023.79 648.25 1022 648.25V649.75C1024.62 649.75 1026.75 647.623 1026.75 645H1025.25ZM1025.25 59.3231V645H1026.75V59.3231H1025.25ZM1025.25 52V59.3231H1026.75V52H1025.25ZM1025.25 4.99999V52H1026.75V4.99999H1025.25ZM1022 1.75C1023.79 1.75 1025.25 3.20506 1025.25 4.99999H1026.75C1026.75 2.37664 1024.62 0.25 1022 0.25V1.75ZM808.281 1.75H1022V0.25H808.281V1.75ZM805.234 8.39516L808.945 1.34951L807.618 0.650486L803.907 7.69613L805.234 8.39516ZM795.722 14.1354C799.712 14.1354 803.374 11.9255 805.234 8.39516L803.907 7.69612C802.307 10.7338 799.156 12.6354 795.722 12.6354V14.1354ZM232.718 14.1354H795.722V12.6354H232.718V14.1354ZM223.394 8.73452C225.31 12.0752 228.867 14.1354 232.718 14.1354V12.6354C229.404 12.6354 226.344 10.8627 224.695 7.98814L223.394 8.73452Z" fill="#2C79EE" fill-opacity="0.45"/>
<path d="M219.821 1L220.472 0.626807L220.256 0.25H219.821V1ZM224.044 8.36133L224.695 7.98814V7.98814L224.044 8.36133ZM808.281 1V0.25H807.828L807.618 0.650486L808.281 1ZM804.57 8.04564L805.234 8.39516V8.39516L804.57 8.04564ZM219.171 1.37319L223.394 8.73452L224.695 7.98814L220.472 0.626807L219.171 1.37319ZM5 1.75H219.821V0.25H5V1.75ZM1.75 4.99693C1.75 3.20276 3.20433 1.75 5 1.75V0.25C2.3774 0.25 0.25 2.37283 0.25 4.99693H1.75ZM1.75 52V4.99693H0.25V52H1.75ZM1.75 59.3231V52H0.25V59.3231H1.75ZM1.75 645V59.3231H0.25V645H1.75ZM5 648.25C3.20507 648.25 1.75 646.795 1.75 645H0.25C0.25 647.623 2.37665 649.75 5 649.75V648.25ZM1022 648.25H5V649.75H1022V648.25ZM1025.25 645C1025.25 646.795 1023.79 648.25 1022 648.25V649.75C1024.62 649.75 1026.75 647.623 1026.75 645H1025.25ZM1025.25 59.3231V645H1026.75V59.3231H1025.25ZM1025.25 52V59.3231H1026.75V52H1025.25ZM1025.25 4.99999V52H1026.75V4.99999H1025.25ZM1022 1.75C1023.79 1.75 1025.25 3.20506 1025.25 4.99999H1026.75C1026.75 2.37664 1024.62 0.25 1022 0.25V1.75ZM808.281 1.75H1022V0.25H808.281V1.75ZM805.234 8.39516L808.945 1.34951L807.618 0.650486L803.907 7.69613L805.234 8.39516ZM795.722 14.1354C799.712 14.1354 803.374 11.9255 805.234 8.39516L803.907 7.69612C802.307 10.7338 799.156 12.6354 795.722 12.6354V14.1354ZM232.718 14.1354H795.722V12.6354H232.718V14.1354ZM223.394 8.73452C225.31 12.0752 228.867 14.1354 232.718 14.1354V12.6354C229.404 12.6354 226.344 10.8627 224.695 7.98814L223.394 8.73452Z" fill="url(#paint0_linear_64_12447)"/>
<path d="M800.819 1.5C800.559 6.51061 796.414 10.4934 791.339 10.4934H235.661C230.586 10.4934 226.441 6.51061 226.181 1.5H519H800.819Z" fill="url(#paint1_linear_64_12447)" stroke="#265BAB"/>
<defs>
<filter id="filter0_i_64_12447" x="0.25" y="0.25" width="1026.5" height="650.5" filterUnits="userSpaceOnUse" color-interpolation-filters="sRGB">
<feFlood flood-opacity="0" result="BackgroundImageFix"/>
<feBlend mode="normal" in="SourceGraphic" in2="BackgroundImageFix" result="shape"/>
<feColorMatrix in="SourceAlpha" type="matrix" values="0 0 0 0 0 0 0 0 0 0 0 0 0 0 0 0 0 0 127 0" result="hardAlpha"/>
<feOffset dy="1"/>
<feGaussianBlur stdDeviation="10"/>
<feComposite in2="hardAlpha" operator="arithmetic" k2="-1" k3="1"/>
<feColorMatrix type="matrix" values="0 0 0 0 0.0705882 0 0 0 0 0.556863 0 0 0 0 0.909804 0 0 0 1 0"/>
<feBlend mode="normal" in2="shape" result="effect1_innerShadow_64_12447"/>
</filter>
<linearGradient id="paint0_linear_64_12447" x1="652.014" y1="1" x2="652.014" y2="649" gradientUnits="userSpaceOnUse">
<stop stop-color="#007FF3" stop-opacity="0"/>
<stop offset="0.421875" stop-color="#34E7FF"/>
<stop offset="0.598958" stop-color="#34E7FF"/>
<stop offset="1" stop-color="#007FF3" stop-opacity="0"/>
</linearGradient>
<linearGradient id="paint1_linear_64_12447" x1="259.834" y1="5.99668" x2="259.834" y2="1" gradientUnits="userSpaceOnUse">
<stop stop-color="#428EFF"/>
<stop offset="1" stop-color="#003E86"/>
</linearGradient>
</defs>
</svg>
