<svg width="276" height="272" fill="none" xmlns="http://www.w3.org/2000/svg"><g filter="url(#a)"><path fill-rule="evenodd" clip-rule="evenodd" d="M96.229 8.027 92.476 1H5a4 4 0 0 0-4 4v262a4 4 0 0 0 4 4h266a4 4 0 0 0 4-4V5.003A4.003 4.003 0 0 0 271 1h-86.456l-3.294 6.719a10 10 0 0 1-8.979 5.598H105.05a10 10 0 0 1-8.821-5.29Z" fill="#030733"/></g><path d="m92.476 1 .662-.353-.212-.397h-.45V1Zm3.753 7.027-.662.353.662-.353ZM184.544 1V.25h-.468l-.205.42.673.33Zm-3.294 6.719-.674-.33.674.33ZM91.815 1.353l3.752 7.027 1.323-.706L93.138.647l-1.323.706ZM5 1.75h87.476V.25H5v1.5ZM1.75 5A3.25 3.25 0 0 1 5 1.75V.25A4.75 4.75 0 0 0 .25 5h1.5Zm0 47V5H.25v47h1.5Zm0 7v-7H.25v7h1.5Zm0 208V59H.25v208h1.5ZM5 270.25A3.25 3.25 0 0 1 1.75 267H.25A4.75 4.75 0 0 0 5 271.75v-1.5Zm266 0H5v1.5h266v-1.5Zm3.25-3.25a3.25 3.25 0 0 1-3.25 3.25v1.5a4.75 4.75 0 0 0 4.75-4.75h-1.5Zm0-208v208h1.5V59h-1.5Zm0-7v7h1.5v-7h-1.5Zm0-46.997V52h1.5V5.003h-1.5ZM271 1.75a3.253 3.253 0 0 1 3.25 3.253h1.5A4.753 4.753 0 0 0 271 .25v1.5Zm-86.456 0H271V.25h-86.456v1.5Zm-2.621 6.3 3.294-6.72-1.346-.66-3.295 6.719 1.347.66Zm-9.652 6.017a10.75 10.75 0 0 0 9.652-6.018l-1.347-.66a9.248 9.248 0 0 1-8.305 5.178v1.5Zm-67.221 0h67.221v-1.5H105.05v1.5ZM95.567 8.38a10.75 10.75 0 0 0 9.483 5.687v-1.5a9.25 9.25 0 0 1-8.16-4.893l-1.323.706Z" fill="#2C79EE" fill-opacity=".45"/><path d="m92.476 1 .662-.353-.212-.397h-.45V1Zm3.753 7.027-.662.353.662-.353ZM184.544 1V.25h-.468l-.205.42.673.33Zm-3.294 6.719-.674-.33.674.33ZM91.815 1.353l3.752 7.027 1.323-.706L93.138.647l-1.323.706ZM5 1.75h87.476V.25H5v1.5ZM1.75 5A3.25 3.25 0 0 1 5 1.75V.25A4.75 4.75 0 0 0 .25 5h1.5Zm0 47V5H.25v47h1.5Zm0 7v-7H.25v7h1.5Zm0 208V59H.25v208h1.5ZM5 270.25A3.25 3.25 0 0 1 1.75 267H.25A4.75 4.75 0 0 0 5 271.75v-1.5Zm266 0H5v1.5h266v-1.5Zm3.25-3.25a3.25 3.25 0 0 1-3.25 3.25v1.5a4.75 4.75 0 0 0 4.75-4.75h-1.5Zm0-208v208h1.5V59h-1.5Zm0-7v7h1.5v-7h-1.5Zm0-46.997V52h1.5V5.003h-1.5ZM271 1.75a3.253 3.253 0 0 1 3.25 3.253h1.5A4.753 4.753 0 0 0 271 .25v1.5Zm-86.456 0H271V.25h-86.456v1.5Zm-2.621 6.3 3.294-6.72-1.346-.66-3.295 6.719 1.347.66Zm-9.652 6.017a10.75 10.75 0 0 0 9.652-6.018l-1.347-.66a9.248 9.248 0 0 1-8.305 5.178v1.5Zm-67.221 0h67.221v-1.5H105.05v1.5ZM95.567 8.38a10.75 10.75 0 0 0 9.483 5.687v-1.5a9.25 9.25 0 0 1-8.16-4.893l-1.323.706Z" fill="url(#b)"/><path d="M178.488 1.5c-.237 5.053-4.043 9-8.618 9h-62.74c-4.575 0-8.381-3.947-8.618-9h79.976Z" fill="url(#c)" stroke="#265BAB"/><defs><linearGradient id="b" x1="189" y1="1" x2="189" y2="256.41" gradientUnits="userSpaceOnUse"><stop stop-color="#007FF3" stop-opacity="0"/><stop offset=".422" stop-color="#34E7FF"/><stop offset=".599" stop-color="#34E7FF"/><stop offset="1" stop-color="#007FF3" stop-opacity="0"/></linearGradient><linearGradient id="c" x1="127.386" y1="6" x2="127.386" y2="1" gradientUnits="userSpaceOnUse"><stop stop-color="#428EFF"/><stop offset="1" stop-color="#003E86"/></linearGradient><filter id="a" x=".25" y=".25" width="275.5" height="272.5" filterUnits="userSpaceOnUse" color-interpolation-filters="sRGB"><feFlood flood-opacity="0" result="BackgroundImageFix"/><feBlend in="SourceGraphic" in2="BackgroundImageFix" result="shape"/><feColorMatrix in="SourceAlpha" values="0 0 0 0 0 0 0 0 0 0 0 0 0 0 0 0 0 0 127 0" result="hardAlpha"/><feOffset dy="1"/><feGaussianBlur stdDeviation="10"/><feComposite in2="hardAlpha" operator="arithmetic" k2="-1" k3="1"/><feColorMatrix values="0 0 0 0 0.0705882 0 0 0 0 0.556863 0 0 0 0 0.909804 0 0 0 1 0"/><feBlend in2="shape" result="effect1_innerShadow_64_12467"/></filter></defs></svg>