<svg width="1027" height="650" fill="none" xmlns="http://www.w3.org/2000/svg"><g filter="url(#a)"><path fill-rule="evenodd" clip-rule="evenodd" d="M224.044 8.361 219.821 1H5C2.79 1 1 2.788 1 4.997V645a4 4 0 0 0 4 4h1017a4 4 0 0 0 4-4V5a4 4 0 0 0-4-4H808.281l-3.711 7.046a10 10 0 0 1-8.848 5.34H232.718a10 10 0 0 1-8.674-5.025Z" fill="#030733"/></g><path d="m219.821 1 .651-.373-.216-.377h-.435V1Zm4.223 7.361.651-.373-.651.373ZM808.281 1V.25h-.453l-.21.4.663.35Zm-3.711 7.046.664.35-.664-.35ZM219.171 1.373l4.223 7.362 1.301-.747-4.223-7.361-1.301.746ZM5 1.75h214.821V.25H5v1.5ZM1.75 4.997A3.247 3.247 0 0 1 5 1.75V.25A4.747 4.747 0 0 0 .25 4.997h1.5ZM1.75 52V4.997H.25V52h1.5Zm0 7.323V52H.25v7.323h1.5ZM1.75 645V59.323H.25V645h1.5ZM5 648.25A3.25 3.25 0 0 1 1.75 645H.25A4.75 4.75 0 0 0 5 649.75v-1.5Zm1017 0H5v1.5h1017v-1.5Zm3.25-3.25c0 1.795-1.46 3.25-3.25 3.25v1.5c2.62 0 4.75-2.127 4.75-4.75h-1.5Zm0-585.677V645h1.5V59.323h-1.5Zm0-7.323v7.323h1.5V52h-1.5Zm0-47v47h1.5V5h-1.5ZM1022 1.75c1.79 0 3.25 1.455 3.25 3.25h1.5c0-2.623-2.13-4.75-4.75-4.75v1.5Zm-213.719 0H1022V.25H808.281v1.5Zm-3.047 6.645 3.711-7.045-1.327-.7-3.711 7.046 1.327.7Zm-9.512 5.74c3.99 0 7.652-2.21 9.512-5.74l-1.327-.699a9.25 9.25 0 0 1-8.185 4.94v1.5Zm-563.004 0h563.004v-1.5H232.718v1.5Zm-9.324-5.4a10.749 10.749 0 0 0 9.324 5.4v-1.5a9.249 9.249 0 0 1-8.023-4.647l-1.301.747Z" fill="#2C79EE" fill-opacity=".45"/><path d="m219.821 1 .651-.373-.216-.377h-.435V1Zm4.223 7.361.651-.373-.651.373ZM808.281 1V.25h-.453l-.21.4.663.35Zm-3.711 7.046.664.35-.664-.35ZM219.171 1.373l4.223 7.362 1.301-.747-4.223-7.361-1.301.746ZM5 1.75h214.821V.25H5v1.5ZM1.75 4.997A3.247 3.247 0 0 1 5 1.75V.25A4.747 4.747 0 0 0 .25 4.997h1.5ZM1.75 52V4.997H.25V52h1.5Zm0 7.323V52H.25v7.323h1.5ZM1.75 645V59.323H.25V645h1.5ZM5 648.25A3.25 3.25 0 0 1 1.75 645H.25A4.75 4.75 0 0 0 5 649.75v-1.5Zm1017 0H5v1.5h1017v-1.5Zm3.25-3.25c0 1.795-1.46 3.25-3.25 3.25v1.5c2.62 0 4.75-2.127 4.75-4.75h-1.5Zm0-585.677V645h1.5V59.323h-1.5Zm0-7.323v7.323h1.5V52h-1.5Zm0-47v47h1.5V5h-1.5ZM1022 1.75c1.79 0 3.25 1.455 3.25 3.25h1.5c0-2.623-2.13-4.75-4.75-4.75v1.5Zm-213.719 0H1022V.25H808.281v1.5Zm-3.047 6.645 3.711-7.045-1.327-.7-3.711 7.046 1.327.7Zm-9.512 5.74c3.99 0 7.652-2.21 9.512-5.74l-1.327-.699a9.25 9.25 0 0 1-8.185 4.94v1.5Zm-563.004 0h563.004v-1.5H232.718v1.5Zm-9.324-5.4a10.749 10.749 0 0 0 9.324 5.4v-1.5a9.249 9.249 0 0 1-8.023-4.647l-1.301.747Z" fill="url(#b)"/><path d="M800.819 1.5c-.26 5.01-4.405 8.993-9.48 8.993H235.661c-5.075 0-9.22-3.982-9.48-8.993h574.638Z" fill="url(#c)" stroke="#265BAB"/><defs><linearGradient id="b" x1="652.014" y1="1" x2="652.014" y2="649" gradientUnits="userSpaceOnUse"><stop stop-color="#007FF3" stop-opacity="0"/><stop offset=".422" stop-color="#34E7FF"/><stop offset=".599" stop-color="#34E7FF"/><stop offset="1" stop-color="#007FF3" stop-opacity="0"/></linearGradient><linearGradient id="c" x1="259.834" y1="5.997" x2="259.834" y2="1" gradientUnits="userSpaceOnUse"><stop stop-color="#428EFF"/><stop offset="1" stop-color="#003E86"/></linearGradient><filter id="a" x=".25" y=".25" width="1026.5" height="650.5" filterUnits="userSpaceOnUse" color-interpolation-filters="sRGB"><feFlood flood-opacity="0" result="BackgroundImageFix"/><feBlend in="SourceGraphic" in2="BackgroundImageFix" result="shape"/><feColorMatrix in="SourceAlpha" values="0 0 0 0 0 0 0 0 0 0 0 0 0 0 0 0 0 0 127 0" result="hardAlpha"/><feOffset dy="1"/><feGaussianBlur stdDeviation="10"/><feComposite in2="hardAlpha" operator="arithmetic" k2="-1" k3="1"/><feColorMatrix values="0 0 0 0 0.0705882 0 0 0 0 0.556863 0 0 0 0 0.909804 0 0 0 1 0"/><feBlend in2="shape" result="effect1_innerShadow_64_12447"/></filter></defs></svg>